<svg width="118" height="118" viewBox="0 0 118 118" fill="none" xmlns="http://www.w3.org/2000/svg">
<path d="M59 71.9062C66.1279 71.9062 71.9062 66.1279 71.9062 59C71.9062 51.8721 66.1279 46.0938 59 46.0938C51.8721 46.0938 46.0938 51.8721 46.0938 59C46.0938 66.1279 51.8721 71.9062 59 71.9062Z" fill="#FFBC27"/>
<path d="M14.75 73.75C17.8048 73.75 20.2812 71.2736 20.2812 68.2188C20.2812 65.1639 17.8048 62.6875 14.75 62.6875C11.6952 62.6875 9.21875 65.1639 9.21875 68.2188C9.21875 71.2736 11.6952 73.75 14.75 73.75Z" fill="#FFBC27"/>
<path d="M88.5 101.406C91.5548 101.406 94.0312 98.9298 94.0312 95.875C94.0312 92.8202 91.5548 90.3438 88.5 90.3438C85.4452 90.3438 82.9688 92.8202 82.9688 95.875C82.9688 98.9298 85.4452 101.406 88.5 101.406Z" fill="#FFBC27"/>
<path d="M71.9062 20.2812C74.9611 20.2812 77.4375 17.8048 77.4375 14.75C77.4375 11.6952 74.9611 9.21875 71.9062 9.21875C68.8514 9.21875 66.375 11.6952 66.375 14.75C66.375 17.8048 68.8514 20.2812 71.9062 20.2812Z" fill="#FFBC27"/>
<path d="M107.958 26.8427C103.13 20.4055 92.353 18.626 78.2539 21.8844C77.9515 21.1596 77.6392 20.4476 77.3173 19.7542C78.4591 18.5208 79.1452 16.9342 79.2617 15.2574C79.3782 13.5806 78.9182 11.9144 77.9579 10.5349C76.9976 9.15542 75.5946 8.14556 73.9817 7.67275C72.3687 7.19994 70.6426 7.29256 69.0895 7.93527C65.9277 5.11871 62.5394 3.6875 58.9998 3.6875C54.9346 3.6875 51.0752 5.56282 47.529 9.26139C44.5582 12.3593 41.9452 16.603 39.7453 21.8842C25.6462 18.6263 14.8697 20.4057 10.0416 26.8425C4.54976 34.1631 7.69151 46.115 18.4231 59C17.8377 59.7029 17.2709 60.4074 16.7229 61.1134C15.1663 60.6797 13.5103 60.7695 12.0098 61.3692C10.5093 61.9688 9.24749 63.045 8.41856 64.4321C7.58963 65.8191 7.23955 67.4402 7.42222 69.0457C7.60488 70.6512 8.31015 72.1522 9.42947 73.3176C6.48869 80.5419 6.69197 86.6894 10.0414 91.1559C13.2896 95.4862 19.2274 97.7095 27.0592 97.7093C30.8698 97.7093 35.1304 97.1808 39.7453 96.1142C41.9447 101.395 44.5582 105.639 47.529 108.737C51.0752 112.437 54.9346 114.312 58.9998 114.312C63.0651 114.312 66.9245 112.437 70.4707 108.739C73.441 105.641 76.0543 101.398 78.2537 96.1175C79.2399 96.3453 80.214 96.549 81.1758 96.7287C81.3793 98.4644 82.1925 100.072 83.4706 101.263C84.7487 102.455 86.4086 103.155 88.1543 103.237C89.9 103.319 91.6182 102.778 93.0024 101.712C94.3867 100.645 95.3472 99.121 95.7126 97.412C101.221 96.6639 105.438 94.5198 107.958 91.1575C113.45 83.8372 110.309 71.8853 99.5771 59C110.308 46.1145 113.45 34.1628 107.958 26.8427ZM105.008 29.0552C109.28 34.7498 106.247 45.0359 97.1191 56.18C93.0524 51.7519 88.62 47.674 83.869 43.9896C83.0029 37.2799 81.5355 30.9015 79.5876 25.3638C91.7812 22.6442 101.204 23.984 105.008 29.0554V29.0552ZM75.9923 91.7392C71.656 90.5293 67.411 89.0132 63.2893 87.2025C67.2775 85.1438 71.1569 82.881 74.9123 80.4232C76.5313 79.3644 78.1206 78.2743 79.6803 77.1529C78.8854 82.1146 77.6516 86.996 75.9932 91.7395L75.9923 91.7392ZM42.0055 91.7392C40.3472 86.9957 39.1132 82.1144 38.318 77.1526C39.8742 78.2704 41.4636 79.3605 43.0862 80.423C46.8415 82.8809 50.721 85.1437 54.7092 87.2025C50.5876 89.0132 46.3427 90.5294 42.0065 91.7395L42.0055 91.7392ZM42.0055 26.2603C46.3418 27.4702 50.5868 28.9863 54.7085 30.7971C50.7204 32.8558 46.8409 35.1185 43.0855 37.5763C41.4664 38.6351 39.8771 39.7252 38.3176 40.8467C39.1131 35.885 40.3475 31.0038 42.0065 26.2605L42.0055 26.2603ZM45.1035 77.3368C42.5186 75.6465 40.0009 73.8662 37.6059 72.0388C36.6299 63.3735 36.6299 54.626 37.6059 45.9608C40.0009 44.1334 42.5188 42.3528 45.1035 40.6625C49.5635 37.7415 54.205 35.1074 58.9998 32.7763C63.7944 35.1075 68.4356 37.7417 72.8953 40.663C75.4802 42.3532 77.9978 44.1336 80.3929 45.961C80.8824 50.2901 81.1268 54.6433 81.1248 59C81.1268 63.3567 80.8824 67.7099 80.3929 72.039C77.9978 73.8664 75.48 75.647 72.8953 77.3372C68.4355 80.2583 63.7944 82.8925 58.9998 85.2237C54.2053 82.8925 49.5641 80.2583 45.1044 77.337L45.1035 77.3368ZM33.5881 68.835C29.9294 65.8063 26.4922 62.5196 23.3028 59C26.4928 55.4802 29.9304 52.193 33.5893 49.1636C33.3242 52.4001 33.1873 55.6923 33.1873 59C33.1873 62.3077 33.3242 65.5988 33.5891 68.8353L33.5881 68.835ZM75.9932 26.2605C77.6516 31.004 78.8856 35.8854 79.6807 40.8471C78.1246 39.7294 76.5352 38.6392 74.9126 37.5768C71.1572 35.1188 67.2777 32.856 63.2896 30.7973C67.4115 28.9866 71.6567 27.4705 75.9932 26.2605ZM84.4106 49.1647C88.0697 52.1935 91.5072 55.4803 94.6969 59C91.5069 62.5198 88.0693 65.807 84.4104 68.8364C84.6754 65.5999 84.8123 62.3077 84.8123 59C84.8123 55.6923 84.6754 52.4012 84.4106 49.1647ZM75.5936 14.75C75.5936 15.4793 75.3773 16.1923 74.9721 16.7987C74.5669 17.4051 73.991 17.8777 73.3172 18.1568C72.6434 18.4359 71.902 18.5089 71.1867 18.3666C70.4714 18.2244 69.8143 17.8732 69.2986 17.3575C68.7829 16.8417 68.4317 16.1847 68.2894 15.4694C68.1472 14.7541 68.2202 14.0127 68.4993 13.3389C68.7784 12.6651 69.251 12.0891 69.8574 11.684C70.4638 11.2788 71.1768 11.0625 71.9061 11.0625C72.8837 11.0637 73.821 11.4525 74.5123 12.1438C75.2036 12.8351 75.5924 13.7724 75.5936 14.75ZM58.9998 7.375C61.4124 7.375 63.7915 8.33329 66.0918 10.2211C65.1212 11.4652 64.5755 12.988 64.535 14.5654C64.4944 16.1429 64.9613 17.6917 65.8667 18.984C66.7722 20.2763 68.0685 21.2439 69.565 21.7445C71.0615 22.245 72.6791 22.252 74.1799 21.7645C74.3357 22.1086 74.4893 22.4566 74.6408 22.8086C69.2756 24.3393 64.0445 26.3062 58.9998 28.6894C53.9544 26.3056 48.7224 24.3384 43.3563 22.8074C47.5598 12.9699 53.1999 7.375 58.9998 7.375ZM12.9914 29.0552C16.7953 23.9849 26.218 22.644 38.4121 25.364C36.4646 30.9008 34.9972 37.2779 34.1311 43.9875C29.3804 47.6729 24.9479 51.7512 20.8805 56.1793C11.7524 45.0364 8.71917 34.7501 12.9914 29.0552ZM14.7498 64.5312C15.4792 64.5312 16.1921 64.7475 16.7985 65.1527C17.4049 65.5579 17.8776 66.1338 18.1567 66.8076C18.4357 67.4814 18.5088 68.2228 18.3665 68.9381C18.2242 69.6535 17.873 70.3105 17.3573 70.8262C16.8416 71.3419 16.1845 71.6931 15.4692 71.8354C14.7539 71.9777 14.0125 71.9047 13.3387 71.6256C12.6649 71.3465 12.089 70.8738 11.6838 70.2674C11.2786 69.661 11.0623 68.9481 11.0623 68.2188C11.0635 67.2411 11.4524 66.3039 12.1437 65.6126C12.835 64.9213 13.7722 64.5324 14.7498 64.5312ZM12.9916 88.945C10.0054 84.9621 10.9635 79.588 12.6187 75.2782C14.1939 75.7546 15.8831 75.6903 17.4175 75.0954C18.9518 74.5005 20.243 73.4093 21.0853 71.9956C21.9277 70.5819 22.2728 68.927 22.0656 67.2945C21.8585 65.6619 21.111 64.1456 19.9423 62.9871C20.2481 62.5976 20.5607 62.2083 20.8801 61.8191C24.9469 66.2477 29.3794 70.3261 34.1307 74.0109C34.9968 80.7205 36.4641 87.099 38.4121 92.6367C26.2187 95.356 16.7955 94.016 12.9916 88.945ZM58.9998 110.625C53.1999 110.625 47.5598 105.03 43.3563 95.1924C48.7225 93.6616 53.9544 91.6944 58.9998 89.3106C64.0454 91.6942 69.2773 93.6615 74.6434 95.1926C70.4398 105.03 64.7998 110.625 58.9998 110.625ZM88.4998 99.5625C87.7705 99.5625 87.0576 99.3462 86.4512 98.941C85.8448 98.5359 85.3721 97.9599 85.093 97.2861C84.8139 96.6123 84.7409 95.8709 84.8832 95.1556C85.0255 94.4403 85.3767 93.7832 85.8924 93.2675C86.4081 92.7518 87.0651 92.4006 87.7804 92.2584C88.4957 92.1161 89.2372 92.1891 89.911 92.4682C90.5848 92.7473 91.1607 93.2199 91.5659 93.8263C91.9711 94.4327 92.1873 95.1457 92.1873 95.875C92.1862 96.8526 91.7973 97.7899 91.106 98.4812C90.4147 99.1725 89.4775 99.5613 88.4998 99.5625ZM105.008 88.9455C103.141 91.4369 99.8896 93.0677 95.5508 93.713C95.1049 92.2602 94.221 90.9806 93.0202 90.0492C91.8193 89.1179 90.36 88.5803 88.842 88.5099C87.3239 88.4395 85.8211 88.8398 84.5392 89.6561C83.2573 90.4723 82.2589 91.6646 81.6805 93.07C80.9914 92.9391 80.2938 92.7943 79.5878 92.6355C81.5353 87.099 83.0025 80.7219 83.8686 74.0125C88.6194 70.3272 93.0519 66.2489 97.1191 61.8207C106.247 72.9636 109.28 83.2499 105.008 88.9455Z" fill="black"/>
<path d="M59 44.25C56.0827 44.25 53.2309 45.1151 50.8053 46.7358C48.3797 48.3566 46.4891 50.6602 45.3728 53.3554C44.2564 56.0506 43.9643 59.0164 44.5334 61.8776C45.1025 64.7388 46.5073 67.367 48.5702 69.4298C50.633 71.4926 53.2612 72.8975 56.1224 73.4666C58.9836 74.0357 61.9493 73.7436 64.6446 72.6272C67.3398 71.5108 69.6434 69.6203 71.2642 67.1947C72.8849 64.769 73.75 61.9173 73.75 59C73.7456 55.0894 72.1902 51.3402 69.425 48.575C66.6597 45.8098 62.9106 44.2544 59 44.25ZM59 70.0625C56.812 70.0625 54.6732 69.4137 52.854 68.1981C51.0348 66.9826 49.6169 65.2548 48.7796 63.2334C47.9423 61.212 47.7232 58.9877 48.15 56.8418C48.5769 54.6959 49.6305 52.7247 51.1776 51.1776C52.7247 49.6305 54.6959 48.5769 56.8418 48.1501C58.9877 47.7232 61.212 47.9423 63.2334 48.7796C65.2548 49.6169 66.9825 51.0348 68.1981 52.854C69.4137 54.6732 70.0625 56.812 70.0625 59C70.0591 61.9329 68.8925 64.7448 66.8186 66.8187C64.7447 68.8926 61.9329 70.0591 59 70.0625Z" fill="black"/>
</svg>
