<svg width="200" height="304" viewBox="0 0 200 304" fill="none" xmlns="http://www.w3.org/2000/svg">
<circle cx="93" cy="128" r="93" fill="#F8F8FB"/>
<circle cx="57" cy="117" r="11" fill="#F2CF84"/>
<circle cx="199.5" cy="128.5" r="38" stroke="#F2D289" stroke-width="3"/>
<path d="M91.51 63.14C90.847 63.14 90.2111 62.8766 89.7422 62.4078C89.2734 61.9389 89.01 61.303 89.01 60.64C89.01 54.48 93.63 52 97.01 50.16C100.01 48.53 101.27 47.7 101.27 46.11C101.27 45.4469 101.533 44.8111 102.002 44.3422C102.471 43.8734 103.107 43.61 103.77 43.61C104.433 43.61 105.069 43.8734 105.538 44.3422C106.007 44.8111 106.27 45.4469 106.27 46.11C106.27 50.85 102.45 52.91 99.39 54.56C95.95 56.41 94.01 57.61 94.01 60.64C94.01 61.303 93.7466 61.9389 93.2778 62.4078C92.8089 62.8766 92.1731 63.14 91.51 63.14Z" fill="#FEFF01"/>
<path d="M91.51 34.07C90.847 34.07 90.2111 33.8066 89.7422 33.3378C89.2734 32.869 89.01 32.2331 89.01 31.57C89.01 25.4 93.63 22.91 97.01 21.09C100.01 19.46 101.27 18.63 101.27 17.04C101.27 16.377 101.533 15.7411 102.002 15.2723C102.471 14.8034 103.107 14.54 103.77 14.54C104.433 14.54 105.069 14.8034 105.538 15.2723C106.007 15.7411 106.27 16.377 106.27 17.04C106.27 21.78 102.45 23.84 99.39 25.49C95.95 27.34 94.01 28.53 94.01 31.57C94.01 32.2331 93.7466 32.869 93.2778 33.3378C92.8089 33.8066 92.1731 34.07 91.51 34.07Z" fill="#FEFF01"/>
<path d="M103.76 48.6099C103.432 48.6099 103.107 48.5453 102.803 48.4196C102.5 48.294 102.224 48.1099 101.992 47.8777C101.76 47.6456 101.576 47.37 101.45 47.0667C101.325 46.7633 101.26 46.4383 101.26 46.1099C101.26 44.5199 100.03 43.6899 97 42.0599C93.63 40.2399 89 37.7399 89 31.5699C89 30.9069 89.2634 30.271 89.7322 29.8022C90.2011 29.3333 90.837 29.0699 91.5 29.0699C92.163 29.0699 92.7989 29.3333 93.2678 29.8022C93.7366 30.271 94 30.9069 94 31.5699C94 34.5699 96 35.8599 99.37 37.6599C102.44 39.3099 106.25 41.3699 106.25 46.1099C106.25 46.7713 105.988 47.4056 105.521 47.8742C105.055 48.3427 104.421 48.6073 103.76 48.6099Z" fill="#FEFF01"/>
<path d="M103.76 19.54C103.097 19.54 102.461 19.2766 101.992 18.8078C101.523 18.3389 101.26 17.703 101.26 17.04C101.26 15.45 100.03 14.62 97 13.04C93.63 11.16 89.01 8.67 89.01 2.5C89.01 1.83696 89.2734 1.20107 89.7422 0.732233C90.2111 0.263392 90.847 0 91.51 0C92.1731 0 92.8089 0.263392 93.2778 0.732233C93.7466 1.20107 94.01 1.83696 94.01 2.5C94.01 5.5 96.01 6.79 99.38 8.59C102.45 10.24 106.26 12.3 106.26 17.04C106.26 17.703 105.997 18.3389 105.528 18.8078C105.059 19.2766 104.423 19.54 103.76 19.54Z" fill="#FEFF01"/>
<path d="M114.83 74H113.83C113.83 69 117.52 67 120.78 65.27C123.63 63.73 126.09 62.41 126.09 59.46H127.09C127.09 63 124.09 64.6 121.26 66.15C118.09 67.86 114.83 69.63 114.83 74Z" fill="#FEFF01"/>
<path d="M114.83 44.93H113.83C113.83 39.93 117.52 37.93 120.78 36.21C123.63 34.67 126.09 33.35 126.09 30.4H127.09C127.09 33.94 124.09 35.54 121.26 37.09C118.09 38.79 114.83 40.55 114.83 44.93Z" fill="#FEFF01"/>
<path d="M127.08 59.4701H126.08C126.08 56.5201 123.62 55.2001 120.77 53.6601C117.51 51.9001 113.82 49.9101 113.82 44.9301H114.82C114.82 49.3101 118.09 51.0701 121.24 52.7801C124.12 54.3201 127.08 55.9201 127.08 59.4701Z" fill="#FEFF01"/>
<path d="M127.08 30.4H126.08C126.08 27.45 123.62 26.13 120.77 24.59C117.51 22.83 113.82 20.84 113.82 15.86H114.82C114.82 20.24 118.09 22 121.24 23.71C124.12 25.25 127.08 26.85 127.08 30.4Z" fill="#FEFF01"/>
<path d="M147.835 302.695C147.185 302.706 146.557 302.462 146.085 302.015L130.875 287.705C130.618 287.486 130.408 287.216 130.258 286.913C130.109 286.61 130.022 286.279 130.004 285.942C129.985 285.604 130.036 285.266 130.152 284.949C130.267 284.631 130.447 284.34 130.678 284.094C130.91 283.848 131.189 283.651 131.498 283.515C131.808 283.38 132.142 283.309 132.48 283.306C132.818 283.303 133.153 283.369 133.465 283.5C133.777 283.63 134.059 283.823 134.295 284.065L149.545 298.365C149.909 298.708 150.162 299.153 150.271 299.642C150.38 300.13 150.339 300.64 150.155 301.105C149.971 301.571 149.651 301.97 149.238 302.252C148.824 302.534 148.335 302.685 147.835 302.685V302.695Z" fill="#F4D188"/>
<path d="M133.085 303.165C132.587 303.178 132.096 303.042 131.676 302.775C131.256 302.507 130.926 302.121 130.727 301.664C130.528 301.207 130.47 300.702 130.561 300.212C130.651 299.722 130.886 299.271 131.235 298.915L145.545 283.705C146.006 283.258 146.622 283.005 147.265 283C147.908 282.995 148.528 283.238 148.997 283.678C149.465 284.118 149.746 284.722 149.781 285.364C149.816 286.006 149.603 286.637 149.185 287.125L134.885 302.375C134.654 302.622 134.375 302.82 134.066 302.955C133.756 303.091 133.423 303.163 133.085 303.165Z" fill="#F4D188"/>
</svg>
