<svg width="111" height="111" viewBox="0 0 111 111" fill="none" xmlns="http://www.w3.org/2000/svg">
<g clip-path="url(#clip0_1_641)">
<path d="M11.4914 99.9397C16.489 99.9397 20.5404 95.8883 20.5404 90.8906C20.5404 85.893 16.489 81.8416 11.4914 81.8416C6.49371 81.8416 2.44231 85.893 2.44231 90.8906C2.44231 95.8883 6.49371 99.9397 11.4914 99.9397Z" fill="#FFBC27"/>
<path d="M29.5265 99.9397C34.5241 99.9397 38.5755 95.8883 38.5755 90.8906C38.5755 85.893 34.5241 81.8416 29.5265 81.8416C24.5288 81.8416 20.4774 85.893 20.4774 90.8906C20.4774 95.8883 24.5288 99.9397 29.5265 99.9397Z" fill="#FFBC27"/>
<path d="M47.5615 99.9397C52.5591 99.9397 56.6106 95.8883 56.6106 90.8906C56.6106 85.893 52.5591 81.8416 47.5615 81.8416C42.5638 81.8416 38.5124 85.893 38.5124 90.8906C38.5124 95.8883 42.5638 99.9397 47.5615 99.9397Z" fill="#FFBC27"/>
<path d="M65.5963 99.9397C70.5939 99.9397 74.6453 95.8883 74.6453 90.8906C74.6453 85.893 70.5939 81.8416 65.5963 81.8416C60.5986 81.8416 56.5472 85.893 56.5472 90.8906C56.5472 95.8883 60.5986 99.9397 65.5963 99.9397Z" fill="#FFBC27"/>
<path d="M74.6458 90.8905C74.6458 95.8888 70.5944 99.9402 65.5961 99.9402C62.8116 99.9402 60.3232 98.6841 58.6629 96.706C59.7028 97.1232 60.8356 97.3524 62.0247 97.3524C67.023 97.3524 71.0744 93.301 71.0744 88.3027C71.0744 86.0867 70.2788 84.0567 68.9557 82.485C72.2915 83.8189 74.6458 87.079 74.6458 90.8905Z" fill="#FFBC27"/>
<path d="M56.6108 90.89C56.6108 95.8883 52.5594 99.9397 47.5611 99.9397C44.7765 99.9397 42.2882 98.6836 40.6279 96.7055C41.6677 97.1227 42.8006 97.3519 43.9896 97.3519C48.9879 97.3519 53.0393 93.3005 53.0393 88.3022C53.0393 86.0862 52.2437 84.0562 50.9207 82.4845C54.2565 83.8184 56.6108 87.0785 56.6108 90.89Z" fill="#FFBC27"/>
<path d="M38.5757 90.89C38.5757 95.8883 34.5243 99.9397 29.526 99.9397C26.7415 99.9397 24.2531 98.6836 22.5928 96.7055C23.6327 97.1227 24.7655 97.3519 25.9546 97.3519C30.9529 97.3519 35.0043 93.3005 35.0043 88.3022C35.0043 86.0862 34.2087 84.0562 32.8856 82.4845C36.2214 83.8184 38.5757 87.0785 38.5757 90.89Z" fill="#FFBC27"/>
<path d="M20.5407 90.89C20.5407 95.8883 16.4893 99.9397 11.491 99.9397C8.70646 99.9397 6.21811 98.6836 4.55777 96.7055C5.59764 97.1227 6.73048 97.3519 7.91953 97.3519C12.9178 97.3519 16.9692 93.3005 16.9692 88.3022C16.9692 86.0862 16.1737 84.0562 14.8506 82.4845C18.1864 83.8184 20.5407 87.0785 20.5407 90.89Z" fill="#FFBC27"/>
<path d="M99.5056 96.2379C104.503 96.2379 108.555 92.1865 108.555 87.1888C108.555 82.1912 104.503 78.1398 99.5056 78.1398C94.5079 78.1398 90.4565 82.1912 90.4565 87.1888C90.4565 92.1865 94.5079 96.2379 99.5056 96.2379Z" fill="#FFBC27"/>
<path d="M102.288 95.8001C99.7217 96.6302 97.056 96.2519 94.9049 94.9807C96.0313 95.0607 97.1922 94.931 98.3337 94.5635C103.088 93.0263 105.697 87.9243 104.162 83.1703C103.453 80.9803 101.989 79.2442 100.152 78.1611C103.721 78.4162 106.947 80.7922 108.116 84.4069C109.653 89.163 107.044 94.263 102.288 95.8001Z" fill="#FFBC27"/>
<path d="M107.292 20.3709H3.70782C2.55574 20.3709 1.62158 19.437 1.62158 18.2847V13.1463C1.62158 11.9942 2.55552 11.0601 3.70782 11.0601H107.292C108.445 11.0601 109.379 11.994 109.379 13.1463V18.2847C109.379 19.4368 108.445 20.3709 107.292 20.3709Z" fill="#E6E9ED"/>
<path d="M12.8425 95.1497C13.1009 95.1497 13.3627 95.0878 13.6063 94.9575C14.8051 94.3158 15.7239 93.2031 16.1273 91.9047C16.393 91.0494 15.915 90.141 15.0598 89.8753C14.2054 89.61 13.2959 90.0876 13.0304 90.9428C12.8799 91.4271 12.5232 91.8593 12.0759 92.0986C11.2864 92.5212 10.9891 93.5038 11.4115 94.2933C11.7038 94.839 12.264 95.1497 12.8425 95.1497Z" fill="black"/>
<path d="M48.9124 95.1497C49.1706 95.1497 49.4326 95.0878 49.6762 94.9575C50.875 94.3158 51.794 93.2031 52.1974 91.9047C52.4631 91.0494 51.9851 90.141 51.1299 89.8753C50.2751 89.61 49.366 90.0876 49.1005 90.9428C48.9501 91.4271 48.5933 91.859 48.146 92.0986C47.3565 92.5212 47.059 93.5038 47.4817 94.2931C47.7738 94.839 48.3337 95.1497 48.9124 95.1497Z" fill="black"/>
<path d="M107.292 18.7495H98.3747C97.4792 18.7495 96.7533 19.4755 96.7533 20.3709C96.7533 21.2664 97.4792 21.9924 98.3747 21.9924H107.292C109.337 21.9924 111 20.3292 111 18.2849V13.1465C111 11.102 109.337 9.43884 107.292 9.43884H3.70766C1.66315 9.43884 0 11.102 0 13.1465V18.2849C0 20.3292 1.66315 21.9924 3.70766 21.9924H9.87016V80.3449C8.84196 80.5012 7.84619 80.8043 6.89646 81.2581C6.08856 81.6442 5.74655 82.6121 6.13245 83.42C6.51835 84.2279 7.48645 84.5699 8.29435 84.184C9.29553 83.7055 10.3713 83.463 11.4914 83.463C14.6497 83.463 17.536 85.5455 18.5374 88.5406C19.1214 90.2872 19.0494 92.0967 18.3292 93.7897C17.7261 95.2073 16.6776 96.4203 15.3648 97.2261C14.2037 97.9388 12.8538 98.3183 11.4916 98.3183C7.39608 98.3183 4.06394 94.9861 4.06394 90.8906C4.06394 90.1368 4.17614 89.3937 4.39731 88.6824C4.663 87.8274 4.18544 86.9186 3.33019 86.6529C2.47581 86.3874 1.56651 86.8647 1.3006 87.72C0.982584 88.7432 0.821306 89.8101 0.821306 90.8908C0.821306 96.7744 5.60819 101.561 11.4918 101.561C15.2827 101.561 18.6159 99.5724 20.5093 96.5848C22.4025 99.5724 25.7357 101.561 29.5268 101.561C33.3179 101.561 36.6511 99.5724 38.5443 96.5848C40.4375 99.5724 43.7707 101.561 47.5618 101.561C51.3529 101.561 54.6859 99.5724 56.5793 96.5848C58.4725 99.5724 61.8057 101.561 65.5968 101.561C71.4807 101.561 76.2673 96.7744 76.2673 90.8908C76.2673 85.5581 72.3353 81.1266 67.2183 80.3431V21.9924H76.7356L94.72 77.6505C92.698 78.6597 91.0549 80.2796 90.0064 82.3293C88.7084 84.8667 88.476 87.7578 89.3524 90.4699C90.2289 93.182 92.1089 95.3906 94.6463 96.6886C96.173 97.4697 97.8278 97.8647 99.4946 97.8647C100.598 97.8647 101.707 97.6915 102.787 97.3424C105.499 96.4662 107.708 94.586 109.006 92.0485C110.304 89.5111 110.536 86.62 109.66 83.9079C108.02 78.8335 102.916 75.8259 97.8059 76.6536L80.1434 21.9921H90.901C91.7965 21.9921 92.5224 21.2662 92.5224 20.3707C92.5224 19.4753 91.7965 18.7493 90.901 18.7493C90.901 18.7493 77.8996 18.7493 77.8974 18.7493H3.70766C3.45126 18.7493 3.24285 18.5409 3.24285 18.2847V13.1465C3.24285 12.8901 3.45126 12.6817 3.70766 12.6817H107.292C107.549 12.6817 107.757 12.8901 107.757 13.1465V18.2849C107.757 18.5409 107.549 18.7495 107.292 18.7495ZM99.5008 79.7605C102.637 79.7605 105.559 81.7644 106.574 84.905C107.184 86.7927 107.022 88.8053 106.119 90.5715C105.215 92.3378 103.678 93.6466 101.79 94.2565C99.9019 94.8666 97.8894 94.7049 96.1233 93.8014C94.357 92.8977 93.0482 91.3604 92.4383 89.4726C91.179 85.5756 93.3252 81.3804 97.2224 80.1211C97.9784 79.8766 98.7455 79.7605 99.5008 79.7605ZM73.024 90.8906C73.024 94.9861 69.6919 98.3183 65.5964 98.3183C61.7454 98.3183 58.5702 95.372 58.2046 91.6153C58.1577 91.1338 58.1573 90.653 58.2046 90.1657C58.5702 86.409 61.7454 83.4628 65.5964 83.4628C69.6921 83.463 73.024 86.7951 73.024 90.8906ZM49.183 21.9924H63.975V80.3431C60.8662 80.8192 58.1966 82.6432 56.5787 85.1962C54.9607 82.6432 52.2916 80.819 49.1828 80.3431V21.9924H49.183ZM54.9622 90.1636C55.0653 91.1866 54.9475 92.2228 54.6077 93.2395C53.6067 96.2353 50.7201 98.3183 47.5614 98.3183C43.7104 98.3183 40.5352 95.372 40.1696 91.6153C40.0687 90.5774 40.1846 89.5308 40.5151 88.5415C41.5161 85.5458 44.4026 83.4628 47.5614 83.4628C48.9446 83.4628 50.3144 83.8541 51.4874 84.5876C52.7988 85.4076 53.8404 86.636 54.4304 88.0661C54.7134 88.7521 54.8909 89.4547 54.9622 90.1636ZM31.148 21.9924H45.9402V80.3431C42.8314 80.8192 40.1618 82.6432 38.5439 85.1962C36.9259 82.6432 34.2568 80.819 31.148 80.3431V21.9924ZM36.9086 90.1655C37.0135 91.181 36.9106 92.2254 36.5755 93.2317C35.5769 96.2314 32.6882 98.3183 29.5264 98.3183C28.4932 98.3183 27.4637 98.1019 26.5194 97.682C23.6153 96.3909 21.8298 93.2985 22.1346 90.1659C22.5002 86.4092 25.6754 83.463 29.5264 83.463C30.9219 83.463 32.3036 83.8614 33.4833 84.6071C35.4506 85.8506 36.6788 87.9388 36.9086 90.1655ZM27.9052 80.3431C24.7964 80.8192 22.1268 82.6432 20.5089 85.1962C18.8909 82.6432 16.2218 80.819 13.113 80.3431V21.9924H27.905V80.3431H27.9052Z" fill="black"/>
<path d="M101.601 90.9047C102.026 90.9047 102.45 90.7384 102.769 90.4083C103.712 89.4292 104.244 88.0879 104.229 86.7283C104.219 85.8391 103.495 85.1252 102.608 85.1252C102.601 85.1252 102.595 85.1252 102.589 85.1252C101.693 85.1354 100.976 85.8694 100.986 86.7648C100.991 87.272 100.785 87.7928 100.433 88.158C99.8117 88.8029 99.8307 89.8293 100.476 90.4507C100.79 90.754 101.196 90.9047 101.601 90.9047Z" fill="black"/>
<path d="M66.9474 95.1497C67.2058 95.1497 67.4676 95.0878 67.7112 94.9575C68.91 94.3158 69.8288 93.2031 70.2322 91.9047C70.4979 91.0494 70.0199 90.141 69.1647 89.8753C68.3103 89.61 67.4008 90.0876 67.1353 90.9428C66.9848 91.4271 66.6281 91.8593 66.1808 92.0986C65.3913 92.5212 65.094 93.5038 65.5165 94.2933C65.8088 94.839 66.3687 95.1497 66.9474 95.1497Z" fill="black"/>
<path d="M30.8776 95.1497C31.1358 95.1497 31.3978 95.0878 31.6414 94.9575C32.8402 94.3158 33.759 93.2031 34.1624 91.9047C34.4281 91.0494 33.9501 90.141 33.0949 89.8753C32.2403 89.61 31.3312 90.0876 31.0655 90.9428C30.915 91.4271 30.5583 91.8593 30.1112 92.0986C29.3217 92.5212 29.0242 93.5038 29.4469 94.2931C29.7389 94.839 30.2987 95.1497 30.8776 95.1497Z" fill="black"/>
</g>
<defs>
<clipPath id="clip0_1_641">
<rect width="111" height="111" fill="white"/>
</clipPath>
</defs>
</svg>
