<svg width="121" height="121" viewBox="0 0 121 121" fill="none" xmlns="http://www.w3.org/2000/svg">
<path d="M111.547 30.25C114.685 30.25 117.219 32.7834 117.219 35.9219C117.219 39.0603 114.685 41.5938 111.547 41.5938C110.431 41.5938 109.373 41.2723 108.503 40.7052C106.915 39.7031 105.875 37.9448 105.875 35.9219C105.875 32.7834 108.408 30.25 111.547 30.25Z" fill="#FFBC27"/>
<path d="M15.4275 50.3662C17.5261 51.7086 18.9062 54.053 18.9062 56.7188C18.9062 59.3845 17.5261 61.7289 15.4275 63.0713C14.2364 63.8464 12.8373 64.2812 11.3438 64.2812C7.16547 64.2812 3.78125 60.897 3.78125 56.7188C3.78125 52.5405 7.16547 49.1562 11.3438 49.1562C12.8373 49.1562 14.2364 49.5911 15.4275 50.3662Z" fill="#FFBC27"/>
<path d="M69.9531 3.78125C73.0916 3.78125 75.625 6.31469 75.625 9.45312C75.625 12.5916 73.0916 15.125 69.9531 15.125C68.7053 15.125 67.552 14.728 66.6256 14.0284C65.2077 13.0264 64.2812 11.3438 64.2812 9.45312C64.2812 6.31469 66.8147 3.78125 69.9531 3.78125Z" fill="#FFBC27"/>
<path d="M105.875 109.656C105.875 113.835 102.491 117.219 98.3125 117.219C94.1342 117.219 90.75 113.835 90.75 109.656C90.75 105.478 94.1342 102.094 98.3125 102.094C99.8061 102.094 101.205 102.529 102.396 103.304C104.495 104.646 105.875 106.99 105.875 109.656Z" fill="#FFBC27"/>
<path d="M18.9062 103.984C18.9062 107.123 16.3728 109.656 13.2344 109.656C10.0959 109.656 7.5625 107.123 7.5625 103.984C7.5625 100.846 10.0959 98.3125 13.2344 98.3125C14.4822 98.3125 15.6355 98.7095 16.5619 99.4091C17.9798 100.411 18.9062 102.094 18.9062 103.984Z" fill="#FFBC27"/>
<path d="M71.8438 105.875C73.9234 105.875 75.625 107.577 75.625 109.656C75.625 111.736 73.9234 113.438 71.8438 113.438C69.7641 113.438 68.0625 111.736 68.0625 109.656C68.0625 108.333 68.762 107.142 69.8019 106.48C70.388 106.083 71.0875 105.875 71.8438 105.875Z" fill="#FFBC27"/>
<path d="M28.3594 24.5781C31.4978 24.5781 34.0312 27.1116 34.0312 30.25C34.0312 33.3884 31.4978 35.9219 28.3594 35.9219C27.225 35.9219 26.1852 35.5816 25.2966 35.0144C23.7273 34.0123 22.6875 32.2541 22.6875 30.25C22.6875 27.1116 25.2209 24.5781 28.3594 24.5781Z" fill="#FFBC27"/>
<path d="M98.3125 56.7188L115.328 83.1875L102.396 103.304C101.205 102.529 99.8061 102.094 98.3125 102.094C94.1342 102.094 90.75 105.478 90.75 109.656H75.625C75.625 107.577 73.9234 105.875 71.8438 105.875C71.0875 105.875 70.388 106.083 69.8019 106.48L54.8281 83.1875L71.8438 56.7188H98.3125Z" fill="#E6E9ED"/>
<path d="M54.8281 30.25L71.8437 56.7188L54.8281 83.1875H28.3593L15.4275 63.0713C17.5261 61.7289 18.9062 59.3845 18.9062 56.7188C18.9062 54.053 17.5261 51.7086 15.4275 50.3662L25.2965 35.0144C26.1851 35.5816 27.225 35.9219 28.3593 35.9219C31.4978 35.9219 34.0312 33.3884 34.0312 30.25H54.8281Z" fill="#E6E9ED"/>
<path d="M100.557 56.7131L109.214 43.1062C109.959 43.3482 110.743 43.4844 111.547 43.4844C115.718 43.4844 119.109 40.0926 119.109 35.9219C119.109 31.7512 115.718 28.3594 111.547 28.3594C107.376 28.3594 103.984 31.7512 103.984 35.9219C103.984 37.8825 104.726 39.7164 106.017 41.0908L97.2745 54.8281H72.876L57.1177 30.3162L67.1871 16.4711C68.0549 16.8152 68.9832 17.0156 69.9531 17.0156C74.1238 17.0156 77.5156 13.6238 77.5156 9.45312C77.5156 5.28241 74.1238 1.89062 69.9531 1.89062C65.7824 1.89062 62.3906 5.28241 62.3906 9.45312C62.3906 11.2398 63.0278 12.9432 64.1205 14.261L53.8658 28.3594H35.6534C34.8083 25.1056 31.874 22.6875 28.3594 22.6875C24.1887 22.6875 20.7969 26.0793 20.7969 30.25C20.7969 32.1898 21.5285 34.0105 22.8104 35.3849L14.7469 47.9292C13.6654 47.5076 12.5197 47.2656 11.3438 47.2656C6.1313 47.2656 1.89062 51.5063 1.89062 56.7188C1.89062 61.9312 6.1313 66.1719 11.3438 66.1719C12.5216 66.1719 13.6692 65.9299 14.7488 65.5102L26.0698 83.1213L16.0004 96.9664C15.1326 96.6223 14.2043 96.4219 13.2344 96.4219C9.06366 96.4219 5.67188 99.8137 5.67188 103.984C5.67188 108.155 9.06366 111.547 13.2344 111.547C17.4051 111.547 20.7969 108.155 20.7969 103.984C20.7969 102.198 20.1597 100.494 19.067 99.1765L29.3217 85.0781H53.7958L67.3894 106.223C66.637 107.202 66.1719 108.399 66.1719 109.656C66.1719 112.783 68.7167 115.328 71.8438 115.328C74.3053 115.328 76.385 113.742 77.1678 111.547H89.0503C89.9295 115.856 93.7466 119.109 98.3125 119.109C103.525 119.109 107.766 114.869 107.766 109.656C107.766 107.066 106.709 104.659 104.899 102.905L117.574 83.1875L100.557 56.7131ZM111.547 32.1406C113.632 32.1406 115.328 33.8365 115.328 35.9219C115.328 38.0072 113.632 39.7031 111.547 39.7031C110.813 39.7031 110.118 39.5027 109.513 39.1076C108.42 38.4156 107.766 37.2245 107.766 35.9219C107.766 33.8365 109.462 32.1406 111.547 32.1406ZM69.9531 5.67188C72.0385 5.67188 73.7344 7.36777 73.7344 9.45312C73.7344 11.5385 72.0385 13.2344 69.9531 13.2344C69.1402 13.2344 68.3858 12.9867 67.7165 12.4857C66.7504 11.7994 66.1719 10.6669 66.1719 9.45312C66.1719 7.36777 67.8678 5.67188 69.9531 5.67188ZM35.6534 32.1406H53.7958L69.5958 56.7188L53.7958 81.2969H29.3917L17.9307 63.4683C19.7419 61.7119 20.7969 59.3051 20.7969 56.7188C20.7969 54.1286 19.74 51.7218 17.9307 49.9673L25.9999 37.4136C26.7618 37.6688 27.554 37.8125 28.3594 37.8125C31.874 37.8125 34.8083 35.3944 35.6534 32.1406ZM28.3594 26.4688C30.4447 26.4688 32.1406 28.1646 32.1406 30.25C32.1406 32.3354 30.4447 34.0312 28.3594 34.0312C27.6353 34.0312 26.949 33.8271 26.3137 33.4206C25.2266 32.7267 24.5781 31.5432 24.5781 30.25C24.5781 28.1646 26.274 26.4688 28.3594 26.4688ZM5.67188 56.7188C5.67188 53.5917 8.21666 51.0469 11.3438 51.0469C12.4309 51.0469 13.4877 51.3588 14.4085 51.9563C16.0401 53.0018 17.0156 54.7827 17.0156 56.7188C17.0156 58.6548 16.0401 60.4357 14.3971 61.485C13.4877 62.0787 12.4309 62.3906 11.3438 62.3906C8.21666 62.3906 5.67188 59.8458 5.67188 56.7188ZM13.2344 107.766C11.149 107.766 9.45312 106.07 9.45312 103.984C9.45312 101.899 11.149 100.203 13.2344 100.203C14.0473 100.203 14.8017 100.451 15.471 100.952C16.4371 101.638 17.0156 102.771 17.0156 103.984C17.0156 106.07 15.3197 107.766 13.2344 107.766ZM71.8438 111.547C70.8001 111.547 69.9531 110.7 69.9531 109.656C69.9531 109.019 70.284 108.414 70.8606 108.045C71.1367 107.86 71.4675 107.766 71.8438 107.766C72.8874 107.766 73.7344 108.613 73.7344 109.656C73.7344 110.7 72.8874 111.547 71.8438 111.547ZM89.0503 107.766H77.1678C76.385 105.571 74.3053 103.984 71.8438 103.984C71.3976 103.984 70.9665 104.049 70.5468 104.145L57.0761 83.1875L72.876 58.6094H97.2802L113.08 83.1875L101.716 100.867C100.634 100.445 99.4885 100.203 98.3125 100.203C93.7485 100.203 89.9295 103.457 89.0503 107.766ZM98.3125 115.328C95.1854 115.328 92.6406 112.783 92.6406 109.656C92.6406 106.529 95.1854 103.984 98.3125 103.984C99.3996 103.984 100.456 104.296 101.377 104.894C103.009 105.939 103.984 107.72 103.984 109.656C103.984 112.783 101.44 115.328 98.3125 115.328Z" fill="black"/>
<path d="M28.3594 47.2656H43.4844V51.0469H28.3594V47.2656Z" fill="black"/>
<path d="M47.2656 47.2656H54.8281V51.0469H47.2656V47.2656Z" fill="black"/>
<path d="M28.3594 54.8281H54.8281V58.6094H28.3594V54.8281Z" fill="black"/>
<path d="M51.0469 62.3906H54.8281V66.1719H51.0469V62.3906Z" fill="black"/>
<path d="M43.4844 62.3906H47.2656V66.1719H43.4844V62.3906Z" fill="black"/>
<path d="M28.3594 62.3906H39.7031V66.1719H28.3594V62.3906Z" fill="black"/>
<path d="M71.8438 73.7344H86.9688V77.5156H71.8438V73.7344Z" fill="black"/>
<path d="M90.75 73.7344H98.3125V77.5156H90.75V73.7344Z" fill="black"/>
<path d="M71.8438 81.2969H98.3125V85.0781H71.8438V81.2969Z" fill="black"/>
<path d="M94.5312 88.8594H98.3125V92.6406H94.5312V88.8594Z" fill="black"/>
<path d="M86.9688 88.8594H90.75V92.6406H86.9688V88.8594Z" fill="black"/>
<path d="M71.8438 88.8594H83.1875V92.6406H71.8438V88.8594Z" fill="black"/>
</svg>
