<svg width="104" height="104" viewBox="0 0 104 104" fill="none" xmlns="http://www.w3.org/2000/svg">
<path d="M22.75 26C22.75 27.9987 22.1488 29.8675 21.1087 31.4113C19.37 34.0275 16.38 35.75 13 35.75C7.62125 35.75 3.25 31.3787 3.25 26C3.25 20.6213 7.62125 16.25 13 16.25C18.3787 16.25 22.75 20.6213 22.75 26Z" fill="#E6E9ED"/>
<path d="M69.875 3.25C75.2537 3.25 79.625 7.62125 79.625 13C79.625 18.3787 75.2537 22.75 69.875 22.75C68.4288 22.75 67.0475 22.4412 65.8125 21.8562C62.465 20.3288 60.125 16.9325 60.125 13C60.125 7.62125 64.4963 3.25 69.875 3.25Z" fill="#E6E9ED"/>
<path d="M92.625 30.875C96.2163 30.875 99.125 33.7838 99.125 37.375C99.125 40.9663 96.2163 43.875 92.625 43.875C89.8138 43.875 87.4088 42.0875 86.515 39.5688C86.255 38.8863 86.125 38.1388 86.125 37.375C86.125 33.7838 89.0338 30.875 92.625 30.875Z" fill="#E6E9ED"/>
<path d="M52 87.75C54.6924 87.75 56.875 85.5674 56.875 82.875C56.875 80.1826 54.6924 78 52 78C49.3076 78 47.125 80.1826 47.125 82.875C47.125 85.5674 49.3076 87.75 52 87.75Z" fill="#E6E9ED"/>
<path d="M89.375 78C95.6637 78 100.75 83.0863 100.75 89.375C100.75 95.6637 95.6637 100.75 89.375 100.75C83.0863 100.75 78 95.6637 78 89.375C78 86.2225 79.2675 83.395 81.3312 81.3312C83.395 79.2675 86.2225 78 89.375 78Z" fill="#FFBC27"/>
<path d="M30.9888 73.0113C33.93 75.9525 35.75 80.015 35.75 84.5C35.75 93.47 28.47 100.75 19.5 100.75C10.53 100.75 3.25 93.47 3.25 84.5C3.25 75.53 10.53 68.25 19.5 68.25C23.985 68.25 28.0475 70.07 30.9888 73.0113Z" fill="#FFBC27"/>
<path d="M60.8886 49.1075C64.2198 50.1313 66.6248 53.2188 66.6248 56.8751C66.6248 59.5238 65.3411 61.8963 63.3748 63.3751C62.0261 64.3988 60.3361 65.0001 58.4998 65.0001C56.8748 65.0001 55.3636 64.5288 54.0961 63.7001L54.0798 63.6838C55.8186 61.9451 56.8748 59.5401 56.8748 56.8751C56.8748 55.575 56.6148 54.3238 56.1436 53.1863C58.2236 52.5038 59.9298 51.025 60.8886 49.1075Z" fill="#E6E9ED"/>
<path d="M61.75 45.5C61.75 46.6538 61.5063 47.7425 61.0675 48.7337C61.0188 48.8637 60.9538 48.9775 60.8888 49.1075C59.93 51.025 58.2237 52.5037 56.1437 53.1862C54.6975 49.6437 51.2038 47.125 47.125 47.125C46.6375 47.125 46.1663 47.1575 45.695 47.2387C45.5813 46.6862 45.5 46.1012 45.5 45.5C45.5 41.015 49.14 37.375 53.625 37.375C55.2662 37.375 56.81 37.8625 58.0938 38.7075C60.2875 40.17 61.75 42.6562 61.75 45.5Z" fill="#E6E9ED"/>
<path d="M56.1437 53.1862C56.615 54.3237 56.875 55.575 56.875 56.875C56.875 59.54 55.8187 61.945 54.08 63.6837C53.4787 64.3175 52.7638 64.87 52 65.3087C50.57 66.1537 48.9125 66.625 47.125 66.625C44.4275 66.625 41.99 65.5363 40.235 63.765C38.4638 62.01 37.375 59.5725 37.375 56.875C37.375 52.2113 40.6575 48.3112 45.0287 47.3525C45.24 47.3037 45.4675 47.255 45.695 47.2387C46.1663 47.1575 46.6375 47.125 47.125 47.125C51.2037 47.125 54.6975 49.6437 56.1437 53.1862Z" fill="#FFBC27"/>
<path d="M89.375 76.375C86.3753 76.375 83.6176 77.4053 81.4157 79.1196L65.7117 63.414C67.2831 61.6817 68.25 59.3921 68.25 56.875C68.25 53.7972 66.8232 51.025 64.5174 49.2213L85.7139 41.5902C87.1423 43.9237 89.6935 45.5 92.625 45.5C97.1051 45.5 100.75 41.8551 100.75 37.375C100.75 32.8949 97.1051 29.25 92.625 29.25C88.1449 29.25 84.5 32.8949 84.5 37.375C84.5 37.7715 84.5617 38.1501 84.617 38.5304L63.3197 46.1987C63.336 45.9648 63.375 45.7373 63.375 45.5C63.375 42.6091 62.1043 40.0173 60.099 38.2297L66.664 23.9054C67.6829 24.206 68.7586 24.375 69.875 24.375C76.1459 24.375 81.25 19.2725 81.25 13C81.25 6.7275 76.1459 1.625 69.875 1.625C63.6041 1.625 58.5 6.7275 58.5 13C58.5 17.0007 60.5816 20.5173 63.7114 22.5469L57.3235 36.4845C56.1828 36.0132 54.9347 35.75 53.625 35.75C48.5322 35.75 44.3462 39.676 43.9172 44.6582L23.257 30.8848C23.9655 29.4028 24.375 27.7501 24.375 26C24.375 19.7275 19.2709 14.625 13 14.625C6.72913 14.625 1.625 19.7275 1.625 26C1.625 32.2725 6.72913 37.375 13 37.375C16.3556 37.375 19.3668 35.906 21.4516 33.5871L41.5382 46.9787C38.0884 48.9336 35.75 52.6338 35.75 56.875C35.75 59.4263 36.6048 61.776 38.0283 63.6756L30.9303 70.7736C27.8298 68.1866 23.8452 66.625 19.5 66.625C9.64437 66.625 1.625 74.6444 1.625 84.5C1.625 94.3556 9.64437 102.375 19.5 102.375C29.3556 102.375 37.375 94.3556 37.375 84.5C37.375 80.1564 35.815 76.1719 33.228 73.0697L40.326 65.9717C42.2256 67.3952 44.5754 68.25 47.125 68.25C48.2544 68.25 49.3447 68.0794 50.375 67.7706V76.6057C47.5784 77.3321 45.5 79.8558 45.5 82.875C45.5 86.4597 48.4152 89.375 52 89.375C55.5848 89.375 58.5 86.4597 58.5 82.875C58.5 79.8558 56.4216 77.3321 53.625 76.6057V66.196C53.8623 66.0303 54.0963 65.8596 54.3205 65.676C55.6189 66.2951 57.0407 66.625 58.5 66.625C60.1819 66.625 61.7646 66.1976 63.1475 65.4436L79.118 81.4157C77.4053 83.6193 76.375 86.3753 76.375 89.375C76.375 96.5429 82.2071 102.375 89.375 102.375C96.5429 102.375 102.375 96.5429 102.375 89.375C102.375 82.2071 96.5429 76.375 89.375 76.375ZM92.625 32.5C95.3128 32.5 97.5 34.6872 97.5 37.375C97.5 40.0628 95.3128 42.25 92.625 42.25C89.9372 42.25 87.75 40.0628 87.75 37.375C87.75 34.6872 89.9372 32.5 92.625 32.5ZM61.75 13C61.75 8.51988 65.3949 4.875 69.875 4.875C74.3551 4.875 78 8.51988 78 13C78 17.4801 74.3551 21.125 69.875 21.125C65.3949 21.125 61.75 17.4801 61.75 13ZM13 34.125C8.51988 34.125 4.875 30.4801 4.875 26C4.875 21.5199 8.51988 17.875 13 17.875C17.4801 17.875 21.125 21.5199 21.125 26C21.125 30.4801 17.4801 34.125 13 34.125ZM55.25 82.875C55.25 84.6674 53.7924 86.125 52 86.125C50.2076 86.125 48.75 84.6674 48.75 82.875C48.75 81.0826 50.2076 79.625 52 79.625C53.7924 79.625 55.25 81.0826 55.25 82.875ZM53.625 39C57.2098 39 60.125 41.9152 60.125 45.5C60.125 47.8286 58.8591 49.9184 56.8864 51.064C54.899 47.7393 51.272 45.5 47.125 45.5C47.125 41.9152 50.0402 39 53.625 39ZM19.5 99.125C11.4351 99.125 4.875 92.5632 4.875 84.5C4.875 76.4368 11.4351 69.875 19.5 69.875C27.5649 69.875 34.125 76.4368 34.125 84.5C34.125 92.5632 27.5649 99.125 19.5 99.125ZM39 56.875C39 52.3949 42.6449 48.75 47.125 48.75C51.6051 48.75 55.25 52.3949 55.25 56.875C55.25 61.3551 51.6051 65 47.125 65C42.6449 65 39 61.3551 39 56.875ZM56.6329 63.102C57.8094 61.3113 58.5 59.1727 58.5 56.875C58.5 55.9162 58.3684 54.9884 58.1425 54.0979C59.5156 53.3813 60.6759 52.364 61.5517 51.1436C63.6512 52.2551 65 54.4229 65 56.875C65 60.4598 62.0848 63.375 58.5 63.375C57.8614 63.375 57.2341 63.2808 56.6329 63.102ZM89.375 99.125C83.9979 99.125 79.625 94.7521 79.625 89.375C79.625 83.9979 83.9979 79.625 89.375 79.625C94.7521 79.625 99.125 83.9979 99.125 89.375C99.125 94.7521 94.7521 99.125 89.375 99.125Z" fill="black"/>
<path d="M8.125 84.5H11.375C11.375 80.0199 15.0199 76.375 19.5 76.375V73.125C13.2291 73.125 8.125 78.2275 8.125 84.5Z" fill="black"/>
<path d="M89.375 92.625V95.875C92.9598 95.875 95.875 92.9598 95.875 89.375H92.625C92.625 91.1674 91.1674 92.625 89.375 92.625Z" fill="black"/>
</svg>
