<svg width="111" height="93" viewBox="0 0 111 93" fill="none" xmlns="http://www.w3.org/2000/svg">
<path d="M107.292 9.7495H98.3747C97.4792 9.7495 96.7533 10.4755 96.7533 11.3709C96.7533 12.2664 97.4792 12.9924 98.3747 12.9924H107.292C109.337 12.9924 111 11.3292 111 9.28491V4.1465C111 2.10199 109.337 0.438843 107.292 0.438843H3.70766C1.66315 0.438843 0 2.10199 0 4.1465V9.28491C0 11.3292 1.66315 12.9924 3.70766 12.9924H9.87016V71.3449C8.84196 71.5012 7.84619 71.8043 6.89646 72.2581C6.08856 72.6442 5.74655 73.6121 6.13245 74.42C6.51835 75.2279 7.48645 75.5699 8.29435 75.184C9.29553 74.7055 10.3713 74.463 11.4914 74.463C14.6497 74.463 17.536 76.5455 18.5374 79.5406C19.1214 81.2872 19.0494 83.0967 18.3292 84.7897C17.7261 86.2073 16.6776 87.4203 15.3648 88.2261C14.2037 88.9388 12.8538 89.3183 11.4916 89.3183C7.39608 89.3183 4.06394 85.9861 4.06394 81.8906C4.06394 81.1368 4.17614 80.3937 4.39731 79.6824C4.663 78.8274 4.18544 77.9186 3.33019 77.6529C2.47581 77.3874 1.56651 77.8647 1.3006 78.72C0.982584 79.7432 0.821306 80.8101 0.821306 81.8908C0.821306 87.7744 5.60819 92.5613 11.4918 92.5613C15.2827 92.5613 18.6159 90.5724 20.5093 87.5848C22.4025 90.5724 25.7357 92.5613 29.5268 92.5613C33.3179 92.5613 36.6511 90.5724 38.5443 87.5848C40.4375 90.5724 43.7707 92.5613 47.5618 92.5613C51.3529 92.5613 54.6859 90.5724 56.5793 87.5848C58.4725 90.5724 61.8057 92.5613 65.5968 92.5613C71.4807 92.5613 76.2673 87.7744 76.2673 81.8908C76.2673 76.5581 72.3353 72.1266 67.2183 71.3431V12.9924H76.7356L94.72 68.6505C92.698 69.6597 91.0549 71.2796 90.0064 73.3293C88.7084 75.8667 88.476 78.7578 89.3524 81.4699C90.2289 84.182 92.1089 86.3906 94.6463 87.6886C96.173 88.4697 97.8278 88.8647 99.4946 88.8647C100.598 88.8647 101.707 88.6915 102.787 88.3424C105.499 87.4662 107.708 85.586 109.006 83.0485C110.304 80.5111 110.536 77.62 109.66 74.9079C108.02 69.8335 102.916 66.8259 97.8059 67.6536L80.1434 12.9921H90.901C91.7965 12.9921 92.5224 12.2662 92.5224 11.3707C92.5224 10.4753 91.7965 9.74928 90.901 9.74928C90.901 9.74928 77.8996 9.74928 77.8974 9.74928H3.70766C3.45126 9.74928 3.24285 9.54088 3.24285 9.28469V4.1465C3.24285 3.8901 3.45126 3.68169 3.70766 3.68169H107.292C107.549 3.68169 107.757 3.8901 107.757 4.1465V9.28491C107.757 9.54088 107.549 9.7495 107.292 9.7495ZM99.5008 70.7605C102.637 70.7605 105.559 72.7644 106.574 75.905C107.184 77.7927 107.022 79.8053 106.119 81.5715C105.215 83.3378 103.678 84.6466 101.79 85.2565C99.9019 85.8666 97.8894 85.7049 96.1233 84.8014C94.357 83.8977 93.0482 82.3604 92.4383 80.4726C91.179 76.5756 93.3252 72.3804 97.2224 71.1211C97.9784 70.8766 98.7455 70.7605 99.5008 70.7605ZM73.024 81.8906C73.024 85.9861 69.6919 89.3183 65.5964 89.3183C61.7454 89.3183 58.5702 86.372 58.2046 82.6153C58.1577 82.1338 58.1573 81.653 58.2046 81.1657C58.5702 77.409 61.7454 74.4628 65.5964 74.4628C69.6921 74.463 73.024 77.7951 73.024 81.8906ZM49.183 12.9924H63.975V71.3431C60.8662 71.8192 58.1966 73.6432 56.5787 76.1962C54.9607 73.6432 52.2916 71.819 49.1828 71.3431V12.9924H49.183ZM54.9622 81.1636C55.0653 82.1866 54.9475 83.2228 54.6077 84.2395C53.6067 87.2353 50.7201 89.3183 47.5614 89.3183C43.7104 89.3183 40.5352 86.372 40.1696 82.6153C40.0687 81.5774 40.1846 80.5308 40.5151 79.5415C41.5161 76.5458 44.4026 74.4628 47.5614 74.4628C48.9446 74.4628 50.3144 74.8541 51.4874 75.5876C52.7988 76.4076 53.8404 77.636 54.4304 79.0661C54.7134 79.7521 54.8909 80.4547 54.9622 81.1636ZM31.148 12.9924H45.9402V71.3431C42.8314 71.8192 40.1618 73.6432 38.5439 76.1962C36.9259 73.6432 34.2568 71.819 31.148 71.3431V12.9924ZM36.9086 81.1655C37.0135 82.181 36.9106 83.2254 36.5755 84.2317C35.5769 87.2314 32.6882 89.3183 29.5264 89.3183C28.4932 89.3183 27.4637 89.1019 26.5194 88.682C23.6153 87.3909 21.8298 84.2985 22.1346 81.1659C22.5002 77.4092 25.6754 74.463 29.5264 74.463C30.9219 74.463 32.3036 74.8614 33.4833 75.6071C35.4506 76.8506 36.6788 78.9388 36.9086 81.1655ZM27.9052 71.3431C24.7964 71.8192 22.1268 73.6432 20.5089 76.1962C18.8909 73.6432 16.2218 71.819 13.113 71.3431V12.9924H27.905V71.3431H27.9052Z" fill="black"/>
</svg>
