<svg width="93" height="158" viewBox="0 0 93 158" fill="none" xmlns="http://www.w3.org/2000/svg">
<path d="M89.8347 19.6953C89.185 19.7057 88.5569 19.4617 88.0847 19.0153L72.8747 4.70535C72.6178 4.48555 72.4082 4.21592 72.2585 3.91279C72.1087 3.60965 72.0221 3.2793 72.0037 2.94171C71.9853 2.60413 72.0356 2.26632 72.1515 1.94872C72.2674 1.63112 72.4465 1.34033 72.678 1.09394C72.9095 0.847543 73.1886 0.650664 73.4984 0.515209C73.8081 0.379754 74.1422 0.308537 74.4802 0.305864C74.8183 0.303192 75.1534 0.369119 75.4653 0.49966C75.7772 0.630201 76.0593 0.822643 76.2947 1.06535L91.5447 15.3653C91.909 15.7085 92.162 16.1531 92.2709 16.6416C92.3797 17.1301 92.3395 17.6401 92.1553 18.1055C91.971 18.5708 91.6514 18.9702 91.2377 19.2519C90.8239 19.5336 90.3352 19.6846 89.8347 19.6853V19.6953Z" fill="#714BEC"/>
<path d="M75.0847 20.1653C74.5868 20.1784 74.0964 20.0424 73.6764 19.7749C73.2563 19.5075 72.9257 19.1206 72.7269 18.664C72.5282 18.2074 72.4703 17.7018 72.5608 17.2121C72.6512 16.7223 72.8859 16.2708 73.2347 15.9153L87.5447 0.705323C88.0062 0.257733 88.6224 0.00516056 89.2653 7.82078e-05C89.9082 -0.00500414 90.5284 0.237794 90.9969 0.678031C91.4655 1.11827 91.7464 1.7221 91.7814 2.36407C91.8163 3.00605 91.6026 3.63681 91.1847 4.12532L76.8847 19.3753C76.6539 19.6223 76.3754 19.8197 76.0659 19.9555C75.7565 20.0913 75.4226 20.1627 75.0847 20.1653Z" fill="#714BEC"/>
<path d="M36.6406 147.319C36.0855 147.681 35.4092 147.809 34.7602 147.673C34.1113 147.537 33.5429 147.149 33.1802 146.594C29.8105 141.437 32.3214 136.834 34.1443 133.444C35.764 130.439 36.3647 129.055 35.4949 127.724C35.1322 127.169 35.0048 126.492 35.1408 125.843C35.2768 125.194 35.6651 124.626 36.2201 124.263C36.7752 123.901 37.4515 123.773 38.1005 123.909C38.7494 124.045 39.3178 124.433 39.6805 124.989C42.2734 128.956 40.2025 132.771 38.5435 135.826C36.6759 139.256 35.7083 141.322 37.3658 143.858C37.7285 144.413 37.8559 145.09 37.7199 145.739C37.5838 146.388 37.1956 146.956 36.6406 147.319Z" fill="#F4D188"/>
<path d="M20.7384 122.984C20.1834 123.347 19.507 123.474 18.858 123.338C18.2091 123.202 17.6408 122.814 17.2781 122.259C13.9029 117.094 16.4083 112.482 18.2421 109.109C19.8618 106.104 20.4625 104.72 19.5927 103.389C19.23 102.834 19.1027 102.157 19.2387 101.508C19.3747 100.859 19.7629 100.291 20.318 99.9284C20.873 99.5657 21.5494 99.4384 22.1983 99.5744C22.8473 99.7104 23.4156 100.099 23.7783 100.654C26.3712 104.622 24.3003 108.436 22.6414 111.491C20.7737 114.921 19.8007 116.979 21.4636 119.523C21.8263 120.079 21.9537 120.755 21.8177 121.404C21.6817 122.053 21.2935 122.621 20.7384 122.984Z" fill="#F4D188"/>
<path d="M38.9469 128.454C38.6721 128.634 38.3646 128.758 38.0419 128.818C37.7193 128.879 37.3879 128.876 37.0665 128.808C36.7452 128.741 36.4403 128.611 36.1692 128.426C35.8981 128.241 35.6661 128.004 35.4866 127.729C34.6168 126.398 33.1331 126.376 29.705 126.669C25.8883 126.989 20.6449 127.429 17.2697 122.264C16.907 121.709 16.7797 121.033 16.9157 120.384C17.0517 119.735 17.4399 119.166 17.9949 118.804C18.55 118.441 19.2264 118.314 19.8753 118.45C20.5243 118.586 21.0926 118.974 21.4553 119.529C23.0964 122.04 25.4763 122.026 29.282 121.689C32.7545 121.391 37.0708 121.032 39.6637 124.999C40.0255 125.553 40.1532 126.227 40.0188 126.875C39.8845 127.522 39.4991 128.09 38.9469 128.454Z" fill="#F4D188"/>
<path d="M23.0447 104.119C22.4897 104.482 21.8133 104.61 21.1644 104.474C20.5154 104.338 19.9471 103.949 19.5844 103.394C18.7146 102.063 17.2309 102.041 13.8302 102.376C9.98067 102.646 4.75111 103.089 1.37593 97.9237C1.01323 97.3687 0.885874 96.6923 1.02188 96.0433C1.15788 95.3944 1.5461 94.8261 2.10115 94.4634C2.65619 94.1007 3.33258 93.9733 3.98152 94.1093C4.63046 94.2453 5.1988 94.6335 5.5615 95.1886C7.20259 97.6999 9.58248 97.6857 13.3882 97.349C16.8607 97.0509 21.177 96.6912 23.7699 100.659C24.1327 101.214 24.26 101.891 24.124 102.539C23.988 103.188 23.5998 103.757 23.0447 104.119Z" fill="#F4D188"/>
<path d="M62.1028 143.653L61.2657 144.2C58.5305 140.015 60.5254 136.322 62.3081 133.09C63.8514 130.242 65.1886 127.791 63.5749 125.322L64.412 124.775C66.3485 127.738 64.7124 130.719 63.1913 133.564C61.473 136.73 59.7123 139.995 62.1028 143.653Z" fill="#F4D188"/>
<path d="M46.2007 119.318L45.3636 119.865C42.6284 115.68 44.6233 111.987 46.4114 108.764C47.9548 105.916 49.292 103.465 47.6782 100.995L48.5153 100.448C50.4518 103.412 48.8157 106.392 47.2946 109.238C45.5709 112.395 43.8047 115.652 46.2007 119.318Z" fill="#F4D188"/>
<path d="M64.4091 124.789L63.572 125.336C61.9582 122.866 59.1769 123.107 55.9487 123.377C52.2569 123.687 48.0794 124.039 45.3552 119.871L46.1923 119.324C48.5883 122.99 52.2884 122.675 55.8607 122.383C59.114 122.097 62.4671 121.817 64.4091 124.789Z" fill="#F4D188"/>
<path d="M48.507 100.454L47.6699 101.001C46.0561 98.5313 43.2748 98.772 40.0466 99.0419C36.3548 99.3519 32.1773 99.7046 29.4531 95.5358L30.2902 94.9887C32.6862 98.6553 36.3863 98.3398 39.9586 98.0481C43.2119 97.7619 46.565 97.482 48.507 100.454Z" fill="#F4D188"/>
</svg>
