<svg width="237" height="235" viewBox="0 0 237 235" fill="none" xmlns="http://www.w3.org/2000/svg">
<circle cx="174" cy="63" r="63" fill="#FEFF01"/>
<circle cx="33.5" cy="86.5" r="32" stroke="#FEFF01" stroke-width="3"/>
<path d="M68.6585 225.901C68.4067 225.901 68.1572 225.852 67.9244 225.756C67.6915 225.66 67.4799 225.519 67.3016 225.341L44.548 202.618C44.3144 202.38 44.1471 202.085 44.0626 201.762C43.978 201.439 43.9792 201.1 44.0659 200.778C44.1526 200.456 44.3219 200.162 44.5571 199.925C44.7922 199.689 45.085 199.518 45.4066 199.429L76.4628 191.065C76.7876 190.978 77.1294 190.978 77.454 191.066C77.7786 191.153 78.0745 191.324 78.3122 191.561C78.5498 191.799 78.7208 192.095 78.808 192.42C78.8951 192.744 78.8954 193.086 78.8087 193.411L74.6536 208.943L70.5138 224.482C70.404 224.89 70.1626 225.25 69.8271 225.507C69.4916 225.763 69.0808 225.902 68.6585 225.901ZM49.6077 202.25L67.6696 220.281L70.9661 207.954L74.2549 195.596L49.6077 202.25Z" fill="#F3D088"/>
<path d="M86.3525 234.97L62.6559 211.304L95.0001 202.61L86.3525 234.97ZM64.1355 211.695L85.9539 233.49L93.9115 203.699L64.1355 211.695Z" fill="#F3D088"/>
</svg>
