<svg width="183" height="147" viewBox="0 0 183 147" fill="none" xmlns="http://www.w3.org/2000/svg">
<circle cx="181.5" cy="1.5" r="1.5" fill="#FEC900"/>
<circle cx="181.5" cy="105.5" r="1.5" fill="#FEC900"/>
<circle cx="181.5" cy="53.5" r="1.5" fill="#FEC900"/>
<circle cx="181.5" cy="27.5" r="1.5" fill="#FEC900"/>
<circle cx="181.5" cy="131.5" r="1.5" fill="#FEC900"/>
<circle cx="181.5" cy="79.5" r="1.5" fill="#FEC900"/>
<circle cx="181.5" cy="13.5" r="1.5" fill="#FEC900"/>
<circle cx="181.5" cy="117.5" r="1.5" fill="#FEC900"/>
<circle cx="181.5" cy="65.5" r="1.5" fill="#FEC900"/>
<circle cx="181.5" cy="39.5" r="1.5" fill="#FEC900"/>
<circle cx="181.5" cy="143.5" r="1.5" fill="#FEC900"/>
<circle cx="181.5" cy="91.5" r="1.5" fill="#FEC900"/>
<circle cx="85.5" cy="1.5" r="1.5" fill="#FEC900"/>
<circle cx="85.5" cy="105.5" r="1.5" fill="#FEC900"/>
<circle cx="85.5" cy="53.5" r="1.5" fill="#FEC900"/>
<circle cx="85.5" cy="27.5" r="1.5" fill="#FEC900"/>
<circle cx="85.5" cy="131.5" r="1.5" fill="#FEC900"/>
<circle cx="85.5" cy="79.5" r="1.5" fill="#FEC900"/>
<circle cx="85.5" cy="13.5" r="1.5" fill="#FEC900"/>
<circle cx="85.5" cy="117.5" r="1.5" fill="#FEC900"/>
<circle cx="85.5" cy="65.5" r="1.5" fill="#FEC900"/>
<circle cx="85.5" cy="39.5" r="1.5" fill="#FEC900"/>
<circle cx="85.5" cy="143.5" r="1.5" fill="#FEC900"/>
<circle cx="85.5" cy="91.5" r="1.5" fill="#FEC900"/>
<circle cx="133.5" cy="1.5" r="1.5" fill="#FEC900"/>
<circle cx="133.5" cy="105.5" r="1.5" fill="#FEC900"/>
<circle cx="133.5" cy="53.5" r="1.5" fill="#FEC900"/>
<circle cx="133.5" cy="27.5" r="1.5" fill="#FEC900"/>
<circle cx="133.5" cy="131.5" r="1.5" fill="#FEC900"/>
<circle cx="133.5" cy="79.5" r="1.5" fill="#FEC900"/>
<circle cx="133.5" cy="13.5" r="1.5" fill="#FEC900"/>
<circle cx="133.5" cy="117.5" r="1.5" fill="#FEC900"/>
<circle cx="133.5" cy="65.5" r="1.5" fill="#FEC900"/>
<circle cx="133.5" cy="39.5" r="1.5" fill="#FEC900"/>
<circle cx="133.5" cy="143.5" r="1.5" fill="#FEC900"/>
<circle cx="133.5" cy="91.5" r="1.5" fill="#FEC900"/>
<circle cx="37.5" cy="1.5" r="1.5" fill="#FEC900"/>
<circle cx="37.5" cy="105.5" r="1.5" fill="#FEC900"/>
<circle cx="37.5" cy="53.5" r="1.5" fill="#FEC900"/>
<circle cx="37.5" cy="27.5" r="1.5" fill="#FEC900"/>
<circle cx="37.5" cy="131.5" r="1.5" fill="#FEC900"/>
<circle cx="37.5" cy="79.5" r="1.5" fill="#FEC900"/>
<circle cx="37.5" cy="13.5" r="1.5" fill="#FEC900"/>
<circle cx="37.5" cy="117.5" r="1.5" fill="#FEC900"/>
<circle cx="37.5" cy="65.5" r="1.5" fill="#FEC900"/>
<circle cx="37.5" cy="39.5" r="1.5" fill="#FEC900"/>
<circle cx="37.5" cy="143.5" r="1.5" fill="#FEC900"/>
<circle cx="37.5" cy="91.5" r="1.5" fill="#FEC900"/>
<circle cx="157.5" cy="1.5" r="1.5" fill="#FEC900"/>
<circle cx="157.5" cy="105.5" r="1.5" fill="#FEC900"/>
<circle cx="157.5" cy="53.5" r="1.5" fill="#FEC900"/>
<circle cx="157.5" cy="27.5" r="1.5" fill="#FEC900"/>
<circle cx="157.5" cy="131.5" r="1.5" fill="#FEC900"/>
<circle cx="157.5" cy="79.5" r="1.5" fill="#FEC900"/>
<circle cx="157.5" cy="13.5" r="1.5" fill="#FEC900"/>
<circle cx="157.5" cy="117.5" r="1.5" fill="#FEC900"/>
<circle cx="157.5" cy="65.5" r="1.5" fill="#FEC900"/>
<circle cx="157.5" cy="39.5" r="1.5" fill="#FEC900"/>
<circle cx="157.5" cy="143.5" r="1.5" fill="#FEC900"/>
<circle cx="157.5" cy="91.5" r="1.5" fill="#FEC900"/>
<circle cx="61.5" cy="1.5" r="1.5" fill="#FEC900"/>
<circle cx="61.5" cy="105.5" r="1.5" fill="#FEC900"/>
<circle cx="61.5" cy="53.5" r="1.5" fill="#FEC900"/>
<circle cx="61.5" cy="27.5" r="1.5" fill="#FEC900"/>
<circle cx="61.5" cy="131.5" r="1.5" fill="#FEC900"/>
<circle cx="61.5" cy="79.5" r="1.5" fill="#FEC900"/>
<circle cx="61.5" cy="13.5" r="1.5" fill="#FEC900"/>
<circle cx="61.5" cy="117.5" r="1.5" fill="#FEC900"/>
<circle cx="61.5" cy="65.5" r="1.5" fill="#FEC900"/>
<circle cx="61.5" cy="39.5" r="1.5" fill="#FEC900"/>
<circle cx="61.5" cy="143.5" r="1.5" fill="#FEC900"/>
<circle cx="61.5" cy="91.5" r="1.5" fill="#FEC900"/>
<circle cx="109.5" cy="1.5" r="1.5" fill="#FEC900"/>
<circle cx="109.5" cy="105.5" r="1.5" fill="#FEC900"/>
<circle cx="109.5" cy="53.5" r="1.5" fill="#FEC900"/>
<circle cx="109.5" cy="27.5" r="1.5" fill="#FEC900"/>
<circle cx="109.5" cy="131.5" r="1.5" fill="#FEC900"/>
<circle cx="109.5" cy="79.5" r="1.5" fill="#FEC900"/>
<circle cx="109.5" cy="13.5" r="1.5" fill="#FEC900"/>
<circle cx="109.5" cy="117.5" r="1.5" fill="#FEC900"/>
<circle cx="109.5" cy="65.5" r="1.5" fill="#FEC900"/>
<circle cx="109.5" cy="39.5" r="1.5" fill="#FEC900"/>
<circle cx="109.5" cy="143.5" r="1.5" fill="#FEC900"/>
<circle cx="109.5" cy="91.5" r="1.5" fill="#FEC900"/>
<circle cx="13.5" cy="1.5" r="1.5" fill="#FEC900"/>
<circle cx="13.5" cy="105.5" r="1.5" fill="#FEC900"/>
<circle cx="13.5" cy="53.5" r="1.5" fill="#FEC900"/>
<circle cx="13.5" cy="27.5" r="1.5" fill="#FEC900"/>
<circle cx="13.5" cy="131.5" r="1.5" fill="#FEC900"/>
<circle cx="13.5" cy="79.5" r="1.5" fill="#FEC900"/>
<circle cx="13.5" cy="13.5" r="1.5" fill="#FEC900"/>
<circle cx="13.5" cy="117.5" r="1.5" fill="#FEC900"/>
<circle cx="13.5" cy="65.5" r="1.5" fill="#FEC900"/>
<circle cx="13.5" cy="39.5" r="1.5" fill="#FEC900"/>
<circle cx="13.5" cy="143.5" r="1.5" fill="#FEC900"/>
<circle cx="13.5" cy="91.5" r="1.5" fill="#FEC900"/>
<circle cx="169.5" cy="1.5" r="1.5" fill="#FEC900"/>
<circle cx="169.5" cy="105.5" r="1.5" fill="#FEC900"/>
<circle cx="169.5" cy="53.5" r="1.5" fill="#FEC900"/>
<circle cx="169.5" cy="27.5" r="1.5" fill="#FEC900"/>
<circle cx="169.5" cy="131.5" r="1.5" fill="#FEC900"/>
<circle cx="169.5" cy="79.5" r="1.5" fill="#FEC900"/>
<circle cx="169.5" cy="13.5" r="1.5" fill="#FEC900"/>
<circle cx="169.5" cy="117.5" r="1.5" fill="#FEC900"/>
<circle cx="169.5" cy="65.5" r="1.5" fill="#FEC900"/>
<circle cx="169.5" cy="39.5" r="1.5" fill="#FEC900"/>
<circle cx="169.5" cy="143.5" r="1.5" fill="#FEC900"/>
<circle cx="169.5" cy="91.5" r="1.5" fill="#FEC900"/>
<circle cx="73.5" cy="1.5" r="1.5" fill="#FEC900"/>
<circle cx="73.5" cy="105.5" r="1.5" fill="#FEC900"/>
<circle cx="73.5" cy="53.5" r="1.5" fill="#FEC900"/>
<circle cx="73.5" cy="27.5" r="1.5" fill="#FEC900"/>
<circle cx="73.5" cy="131.5" r="1.5" fill="#FEC900"/>
<circle cx="73.5" cy="79.5" r="1.5" fill="#FEC900"/>
<circle cx="73.5" cy="13.5" r="1.5" fill="#FEC900"/>
<circle cx="73.5" cy="117.5" r="1.5" fill="#FEC900"/>
<circle cx="73.5" cy="65.5" r="1.5" fill="#FEC900"/>
<circle cx="73.5" cy="39.5" r="1.5" fill="#FEC900"/>
<circle cx="73.5" cy="143.5" r="1.5" fill="#FEC900"/>
<circle cx="73.5" cy="91.5" r="1.5" fill="#FEC900"/>
<circle cx="121.5" cy="1.5" r="1.5" fill="#FEC900"/>
<circle cx="121.5" cy="105.5" r="1.5" fill="#FEC900"/>
<circle cx="121.5" cy="53.5" r="1.5" fill="#FEC900"/>
<circle cx="121.5" cy="27.5" r="1.5" fill="#FEC900"/>
<circle cx="121.5" cy="131.5" r="1.5" fill="#FEC900"/>
<circle cx="121.5" cy="79.5" r="1.5" fill="#FEC900"/>
<circle cx="121.5" cy="13.5" r="1.5" fill="#FEC900"/>
<circle cx="121.5" cy="117.5" r="1.5" fill="#FEC900"/>
<circle cx="121.5" cy="65.5" r="1.5" fill="#FEC900"/>
<circle cx="121.5" cy="39.5" r="1.5" fill="#FEC900"/>
<circle cx="121.5" cy="143.5" r="1.5" fill="#FEC900"/>
<circle cx="121.5" cy="91.5" r="1.5" fill="#FEC900"/>
<circle cx="25.5" cy="1.5" r="1.5" fill="#FEC900"/>
<circle cx="25.5" cy="105.5" r="1.5" fill="#FEC900"/>
<circle cx="25.5" cy="53.5" r="1.5" fill="#FEC900"/>
<circle cx="25.5" cy="27.5" r="1.5" fill="#FEC900"/>
<circle cx="25.5" cy="131.5" r="1.5" fill="#FEC900"/>
<circle cx="25.5" cy="79.5" r="1.5" fill="#FEC900"/>
<circle cx="25.5" cy="13.5" r="1.5" fill="#FEC900"/>
<circle cx="25.5" cy="117.5" r="1.5" fill="#FEC900"/>
<circle cx="25.5" cy="65.5" r="1.5" fill="#FEC900"/>
<circle cx="25.5" cy="39.5" r="1.5" fill="#FEC900"/>
<circle cx="25.5" cy="143.5" r="1.5" fill="#FEC900"/>
<circle cx="25.5" cy="91.5" r="1.5" fill="#FEC900"/>
<circle cx="145.5" cy="1.5" r="1.5" fill="#FEC900"/>
<circle cx="145.5" cy="105.5" r="1.5" fill="#FEC900"/>
<circle cx="145.5" cy="53.5" r="1.5" fill="#FEC900"/>
<circle cx="145.5" cy="27.5" r="1.5" fill="#FEC900"/>
<circle cx="145.5" cy="131.5" r="1.5" fill="#FEC900"/>
<circle cx="145.5" cy="79.5" r="1.5" fill="#FEC900"/>
<circle cx="145.5" cy="13.5" r="1.5" fill="#FEC900"/>
<circle cx="145.5" cy="117.5" r="1.5" fill="#FEC900"/>
<circle cx="145.5" cy="65.5" r="1.5" fill="#FEC900"/>
<circle cx="145.5" cy="39.5" r="1.5" fill="#FEC900"/>
<circle cx="145.5" cy="143.5" r="1.5" fill="#FEC900"/>
<circle cx="145.5" cy="91.5" r="1.5" fill="#FEC900"/>
<circle cx="49.5" cy="1.5" r="1.5" fill="#FEC900"/>
<circle cx="49.5" cy="105.5" r="1.5" fill="#FEC900"/>
<circle cx="49.5" cy="53.5" r="1.5" fill="#FEC900"/>
<circle cx="49.5" cy="27.5" r="1.5" fill="#FEC900"/>
<circle cx="49.5" cy="131.5" r="1.5" fill="#FEC900"/>
<circle cx="49.5" cy="79.5" r="1.5" fill="#FEC900"/>
<circle cx="49.5" cy="13.5" r="1.5" fill="#FEC900"/>
<circle cx="49.5" cy="117.5" r="1.5" fill="#FEC900"/>
<circle cx="49.5" cy="65.5" r="1.5" fill="#FEC900"/>
<circle cx="49.5" cy="39.5" r="1.5" fill="#FEC900"/>
<circle cx="49.5" cy="143.5" r="1.5" fill="#FEC900"/>
<circle cx="49.5" cy="91.5" r="1.5" fill="#FEC900"/>
<circle cx="97.5" cy="1.5" r="1.5" fill="#FEC900"/>
<circle cx="97.5" cy="105.5" r="1.5" fill="#FEC900"/>
<circle cx="97.5" cy="53.5" r="1.5" fill="#FEC900"/>
<circle cx="97.5" cy="27.5" r="1.5" fill="#FEC900"/>
<circle cx="97.5" cy="131.5" r="1.5" fill="#FEC900"/>
<circle cx="97.5" cy="79.5" r="1.5" fill="#FEC900"/>
<circle cx="97.5" cy="13.5" r="1.5" fill="#FEC900"/>
<circle cx="97.5" cy="117.5" r="1.5" fill="#FEC900"/>
<circle cx="97.5" cy="65.5" r="1.5" fill="#FEC900"/>
<circle cx="97.5" cy="39.5" r="1.5" fill="#FEC900"/>
<circle cx="97.5" cy="143.5" r="1.5" fill="#FEC900"/>
<circle cx="97.5" cy="91.5" r="1.5" fill="#FEC900"/>
<circle cx="1.5" cy="1.5" r="1.5" fill="#FEC900"/>
<circle cx="1.5" cy="105.5" r="1.5" fill="#FEC900"/>
<circle cx="1.5" cy="53.5" r="1.5" fill="#FEC900"/>
<circle cx="1.5" cy="27.5" r="1.5" fill="#FEC900"/>
<circle cx="1.5" cy="131.5" r="1.5" fill="#FEC900"/>
<circle cx="1.5" cy="79.5" r="1.5" fill="#FEC900"/>
<circle cx="1.5" cy="15.5" r="1.5" fill="#FEC900"/>
<circle cx="1.5" cy="119.5" r="1.5" fill="#FEC900"/>
<circle cx="1.5" cy="67.5" r="1.5" fill="#FEC900"/>
<circle cx="1.5" cy="41.5" r="1.5" fill="#FEC900"/>
<circle cx="1.5" cy="145.5" r="1.5" fill="#FEC900"/>
<circle cx="1.5" cy="93.5" r="1.5" fill="#FEC900"/>
</svg>
