<svg width="156" height="183" viewBox="0 0 156 183" fill="none" xmlns="http://www.w3.org/2000/svg">
<circle cx="78" cy="105" r="78" fill="#F8F8FB"/>
<circle cx="98" cy="125" r="18.5" stroke="#F5CF86" stroke-width="3"/>
<path d="M103.572 18.0138C103.027 18.3677 102.365 18.4944 101.728 18.3671L81.2401 14.3199C80.9057 14.2701 80.5849 14.153 80.2971 13.9756C80.0092 13.7983 79.7603 13.5644 79.5655 13.2881C79.3706 13.0119 79.2338 12.6989 79.1633 12.3683C79.0929 12.0376 79.0902 11.6961 79.1555 11.3644C79.2208 11.0326 79.3527 10.7176 79.5432 10.4383C79.7338 10.159 79.979 9.92129 80.264 9.73947C80.549 9.55766 80.868 9.43555 81.2016 9.38052C81.5351 9.3255 81.8764 9.33871 82.2048 9.41935L102.721 13.4368C103.212 13.534 103.662 13.7764 104.014 14.1325C104.366 14.4886 104.602 14.9421 104.694 15.4343C104.785 15.9264 104.726 16.4346 104.525 16.893C104.324 17.3513 103.99 17.7389 103.566 18.0053L103.572 18.0138Z" fill="#F4CF87"/>
<path d="M91.3234 26.2458C90.9085 26.5213 90.4208 26.6665 89.9228 26.663C89.4248 26.6594 88.9392 26.5072 88.5283 26.2259C88.1174 25.9445 87.7998 25.5469 87.6164 25.0839C87.4329 24.6209 87.392 24.1137 87.4987 23.6273L91.5458 3.13968C91.6992 2.51531 92.0872 1.97403 92.6292 1.62828C93.1713 1.28253 93.8257 1.1589 94.4565 1.28307C95.0873 1.40724 95.6461 1.76967 96.0166 2.29506C96.3872 2.82045 96.5411 3.4684 96.4464 4.10431L92.429 24.6205C92.3646 24.9522 92.2334 25.2674 92.0433 25.5469C91.8533 25.8263 91.6083 26.0641 91.3234 26.2458Z" fill="#F4CF87"/>
</svg>
