<svg width="161" height="435" viewBox="0 0 161 435" fill="none" xmlns="http://www.w3.org/2000/svg">
<circle cx="-56.5" cy="217.5" r="217.5" fill="#F8F8FB"/>
<circle cx="89.5" cy="41.5" r="19.5" fill="#FEFF01"/>
<path d="M68.2307 166.425L58.7607 200.979C58.5623 201.703 58.0845 202.319 57.4323 202.69C56.7802 203.062 56.0072 203.159 55.2833 202.961L20.7294 193.491C20.0055 193.292 19.3901 192.814 19.0185 192.162C18.6469 191.51 18.5496 190.737 18.748 190.013L28.218 155.459C28.4164 154.736 28.8943 154.12 29.5464 153.749C30.1985 153.377 30.9716 153.28 31.6954 153.478L66.2493 162.948C66.9732 163.146 67.5886 163.624 67.9602 164.276C68.3318 164.929 68.4291 165.702 68.2307 166.425ZM54.05 196.754L62.0239 167.659L32.9288 159.685L24.9548 188.78L54.05 196.754Z" fill="#F4D188"/>
<path d="M87.5994 144.362L77.8302 180.008L42.1955 170.241L51.9647 134.596L87.5994 144.362ZM77.0377 178.617L86.2085 145.155L52.7573 135.987L43.5865 169.449L77.0377 178.617Z" fill="#F4D188"/>
</svg>
