<svg width="168" height="41" viewBox="0 0 168 41" fill="none" xmlns="http://www.w3.org/2000/svg">
<path d="M9.912 0.799997H37.912V40H29.288V8.584H17.976V11.552C17.976 19.2053 17.5093 25.1413 16.576 29.36C15.68 33.5787 14.3547 36.4907 12.6 38.096C10.8453 39.7013 8.4 40.504 5.264 40.504C3.50933 40.504 1.99733 40.336 0.728 40L1.288 32.888C1.81067 32.9627 2.25867 33 2.632 33C3.90133 33 4.928 32.7387 5.712 32.216C6.53333 31.656 7.28 30.5547 7.952 28.912C8.66133 27.2693 9.16533 24.824 9.464 21.576C9.76267 18.2907 9.912 14.072 9.912 8.92V0.799997ZM80.8416 34.792C76.8842 38.712 71.9189 40.672 65.9456 40.672C59.9722 40.672 55.0069 38.712 51.0496 34.792C47.1296 30.872 45.1696 26.0747 45.1696 20.4C45.1696 14.7627 47.1482 9.984 51.1056 6.064C55.1002 2.10667 60.0842 0.127999 66.0576 0.127999C72.0309 0.127999 76.9776 2.088 80.8976 6.008C84.8549 9.928 86.8336 14.7253 86.8336 20.4C86.8336 26.0373 84.8362 30.8347 80.8416 34.792ZM57.5456 29.136C59.7856 31.5253 62.6229 32.72 66.0576 32.72C69.4922 32.72 72.3109 31.544 74.5136 29.192C76.7162 26.8027 77.8176 23.872 77.8176 20.4C77.8176 16.9653 76.6976 14.0533 74.4576 11.664C72.2176 9.27466 69.3802 8.08 65.9456 8.08C62.5109 8.08 59.6922 9.27466 57.4896 11.664C55.2869 14.016 54.1856 16.928 54.1856 20.4C54.1856 23.8347 55.3056 26.7467 57.5456 29.136ZM102.708 8.584V40H94.0837V0.799997H121.468V8.584H102.708ZM161.088 34.792C157.131 38.712 152.166 40.672 146.192 40.672C140.219 40.672 135.254 38.712 131.296 34.792C127.376 30.872 125.416 26.0747 125.416 20.4C125.416 14.7627 127.395 9.984 131.352 6.064C135.347 2.10667 140.331 0.127999 146.304 0.127999C152.278 0.127999 157.224 2.088 161.144 6.008C165.102 9.928 167.08 14.7253 167.08 20.4C167.08 26.0373 165.083 30.8347 161.088 34.792ZM137.792 29.136C140.032 31.5253 142.87 32.72 146.304 32.72C149.739 32.72 152.558 31.544 154.76 29.192C156.963 26.8027 158.064 23.872 158.064 20.4C158.064 16.9653 156.944 14.0533 154.704 11.664C152.464 9.27466 149.627 8.08 146.192 8.08C142.758 8.08 139.939 9.27466 137.736 11.664C135.534 14.016 134.432 16.928 134.432 20.4C134.432 23.8347 135.552 26.7467 137.792 29.136Z" fill="#DFDFDF"/>
</svg>
